# xmcd
#
# Track frame offsets: 
#        150
#        30587
#        75370
#        113385
#        151230
#        178670
#
# Disc length: 2923 seconds
#
# Revision: 1
# Processed by: cddbd v1.5.2PL0 Copyright (c) Steve Scherf et al.
# Submitted via: ExactAudioCopy v0.95b4
#
DISCID=320b6906
DTITLE=Buddy De Franco - Borinquin
DYEAR=1975
DGENRE=Jazz
TTITLE0=Borinquin
TTITLE1=The Song Is You
TTITLE2=Three Summers Ago
TTITLE3=Easy Living
TTITLE4=But Not For Me
TTITLE5=Pendulums
EXTD=YEAR: 1975
EXTT0=
EXTT1=
EXTT2=
EXTT3=
EXTT4=
EXTT5=
PLAYORDER=
